<svg id="regular" enable-background="new 0 0 24 24" height="512" viewBox="0 0 24 24" width="512" xmlns="http://www.w3.org/2000/svg"><g><g><path d="m22.25 19.25h-20.5c-.552 0-1-.448-1-1v-12.5c0-.552.448-1 1-1h20.5c.552 0 1 .448 1 1v12.5c0 .552-.448 1-1 1z" fill="#fafafa"/></g><g><path d="m14.538 13.503c-.157 0-.309-.063-.421-.175l-1.831-1.84c-.114-.115-.177-.272-.172-.434.004-.162.074-.315.195-.425l2.948-2.672c.176-.159.428-.198.644-.101.216.098.353.315.348.551-.029 1.624-.151 3.473-1.244 4.868-.105.134-.263.217-.432.227-.012.001-.024.001-.035.001z" fill="#2196f3"/></g><g><path d="m8.915 7.976c-.164 0-.32-.064-.437-.18l-1.916-1.908c-.126-.125-.191-.298-.181-.475s.096-.341.236-.45c1.453-1.139 3.38-1.266 5.071-1.296.25.021.473.139.574.363.102.225.06.489-.105.671l-2.783 3.072c-.114.125-.274.199-.443.203-.005 0-.01 0-.016 0z" fill="#2196f3"/></g><g><path d="m6.234 14.624c-.149 0-.295-.059-.404-.167-.148-.148-.203-.367-.143-.568.205-.685.733-2.329 1.199-2.795.636-.636 1.671-.636 2.308 0 .636.637.636 1.672 0 2.308-.466.466-2.11.994-2.795 1.199-.055.015-.11.023-.165.023z" fill="#ff9800"/></g><g><path d="m8.583 7.54 2.901-3.216c1.828-2.112 4.626-3.514 7.121-3.561.176-.009.35.066.476.192s.196.298.192.476c-.047 2.494-1.448 5.292-3.57 7.129l-3.206 2.893z" fill="#eceff1"/></g><g><path d="m22.25 20h-20.5c-.965 0-1.75-.785-1.75-1.75v-12.5c0-.965.785-1.75 1.75-1.75h2.5c.414 0 .75.336.75.75s-.336.75-.75.75h-2.5c-.138 0-.25.112-.25.25v12.5c0 .138.112.25.25.25h20.5c.138 0 .25-.112.25-.25v-12.5c0-.138-.112-.25-.25-.25h-.5c-.414 0-.75-.336-.75-.75s.336-.75.75-.75h.5c.965 0 1.75.785 1.75 1.75v12.5c0 .965-.785 1.75-1.75 1.75z"/></g><g><path d="m16.25 24h-8.5c-.414 0-.75-.336-.75-.75s.336-.75.75-.75h8.5c.414 0 .75.336.75.75s-.336.75-.75.75z"/></g><g><path d="m12 24c-.414 0-.75-.336-.75-.75v-4c0-.414.336-.75.75-.75s.75.336.75.75v4c0 .414-.336.75-.75.75z"/></g><g><path d="m12.319 11.928c-.192 0-.384-.074-.53-.22l-3.461-3.46c-.282-.283-.294-.736-.027-1.033l2.835-3.147c2.089-2.413 5.286-4.014 8.136-4.068h.014c.198 0 .39.079.53.22.145.144.224.34.22.544-.053 2.85-1.654 6.047-4.079 8.146l-3.136 2.825c-.142.129-.322.193-.502.193zm-2.426-4.238 2.454 2.454 2.617-2.358c1.859-1.609 3.195-4.016 3.505-6.219-2.202.31-4.608 1.645-6.208 3.494z"/></g><g><path d="m14.632 14.252c-.199 0-.391-.079-.531-.221l-2.313-2.324c-.293-.293-.291-.768.002-1.061.294-.292.769-.292 1.061.003l1.654 1.662c.67-1.31.761-2.94.788-4.521.007-.413.393-.741.763-.737.414.007.744.349.737.763-.036 2.049-.189 4.384-1.57 6.147-.133.169-.332.273-.546.286-.016.002-.031.003-.045.003z"/></g><g><path d="m8.824 8.433c-.191 0-.383-.073-.529-.218l-2.324-2.313c-.153-.152-.233-.361-.22-.576s.117-.414.286-.546c1.763-1.38 4.098-1.535 6.147-1.571h.014c.408 0 .742.327.75.737.007.414-.322.756-.736.763-1.581.028-3.212.119-4.521.789l1.662 1.654c.293.292.295.767.002 1.061-.146.146-.338.22-.531.22z"/></g><g><path d="m5.786 15.25c-.196 0-.388-.077-.53-.22-.195-.195-.268-.481-.188-.746.27-.899.963-3.057 1.574-3.669.809-.807 2.219-.81 3.029 0 .405.405.628.943.628 1.515s-.223 1.11-.628 1.515c-.612.611-2.771 1.304-3.67 1.573-.07.022-.143.032-.215.032zm2.37-3.762c-.172 0-.333.067-.454.188-.16.172-.45.852-.736 1.645.792-.286 1.472-.576 1.646-.737.121-.121.188-.282.188-.453s-.067-.333-.188-.454c-.123-.122-.285-.189-.456-.189zm.985 1.627h.01z"/></g></g></svg>